# xmcd
#
# Track frame offsets:
#	150
#	23760
#	45969
#	67294
#	87764
#	116055
#	134987
#	153906
#	174748
#	191642
#	209789
#	229531
#	248192
#	269383
#	288280
#
# Disc length: 4103 seconds
#
# Revision: 2
# Processed by: cddbd v1.5.1PL0 Copyright (c) Steve Scherf et al.
# Submitted via: audiograbber 1.83.01
#
DISCID=e010050f
DTITLE=Various Artist - Club Rumba Latina 2
DYEAR=1997
DGENRE=Latin
TTITLE0=Carrapicho - Tic Tic Tac
TTITLE1=King Africa - Blumana
TTITLE2=DJ Dero - La Campana
TTITLE3=Latin Thing - Latin Thing
TTITLE4=Senor Carlos - La Casa Latina
TTITLE5=No Mercy - Where Do You Go
TTITLE6=No Mercy - Please Don't Go
TTITLE7=Boy - Te Extrano
TTITLE8=Machito Ponce - Soul Drummer
TTITLE9=Ilegales - A Que Te Pongo
TTITLE10=Factor X - Sabrosura
TTITLE11=La Band Del Swing - Que Buena Esta
TTITLE12=Sergio Vargas - Me Dejastes Solo
TTITLE13=King Africa - Cachete,  Pechito Y Om Bligo
TTITLE14=Sergio "El Lobizon Deloeste" - Marta
EXTD=
EXTT0=Group: Carrapicho\n
EXTT1=Featuring RUBEN Rada\n
EXTT2=D.J.Dero\n
EXTT3=from themselves\n
EXTT4=Senor Carlos\n
EXTT5=No Mercy\n
EXTT6=No Mercy\n
EXTT7=Boy\n
EXTT8=Machito Ponce\n
EXTT9=Ilegales\n
EXTT10=Factor X\n
EXTT11=La Banda Del Swing\n
EXTT12=Sergio Vargas\n
EXTT13=King Africa\n
EXTT14=Sergio EL LOBIZON DEL OESTE\n
PLAYORDER=
